<?xml version="1.0" encoding="utf-8"?>
<!-- Generator: Adobe Illustrator 19.2.0, SVG Export Plug-In . SVG Version: 6.00 Build 0)  -->
<!DOCTYPE svg PUBLIC "-//W3C//DTD SVG 1.1//EN" "http://www.w3.org/Graphics/SVG/1.1/DTD/svg11.dtd">
<svg version="1.1" id="Layer_1" xmlns="http://www.w3.org/2000/svg" xmlns:xlink="http://www.w3.org/1999/xlink" x="0px" y="0px"
	 width="55px" height="55px" viewBox="0 0 55 55" style="enable-background:new 0 0 55 55;" xml:space="preserve">
<style type="text/css">
	.st0{fill:#FFFFFF;}
</style>
<g>
	<g>
		<path class="st0" d="M17,18c0-0.7,0.3-1.3,0.8-1.8c0.5-0.5,1.2-0.7,2-0.7c0.8,0,1.5,0.2,2,0.7c0.5,0.5,0.7,1.1,0.8,1.8
			c0,0.7-0.2,1.3-0.8,1.8c-0.5,0.5-1.2,0.7-2,0.7c-0.8,0-1.5-0.2-2-0.7S17,18.7,17,18z M17.3,37.3V22.6h4.9v14.7H17.3z M24.9,37.3
			v-9.6v-4.4v-0.7h4.9v2.1c0.2-0.3,0.4-0.6,0.6-0.8c0.2-0.2,0.5-0.5,0.8-0.8c0.4-0.3,0.8-0.5,1.3-0.6c0.5-0.2,1.1-0.2,1.7-0.2
			c1.7,0,3.1,0.6,4.1,1.7s1.5,2.8,1.5,4.9v8.5h-4.9v-7.9c0-1-0.2-1.9-0.6-2.4c-0.4-0.6-1-0.9-1.9-0.9c-0.6,0-1.1,0.2-1.6,0.5
			c-0.4,0.3-0.7,0.8-0.9,1.3c-0.1,0.3-0.2,0.7-0.2,1.2v8.2h-4.8V37.3z"/>
	</g>
</g>
</svg>
