<?xml version="1.0" encoding="utf-8"?>
<!-- Generator: Adobe Illustrator 19.2.0, SVG Export Plug-In . SVG Version: 6.00 Build 0)  -->
<!DOCTYPE svg PUBLIC "-//W3C//DTD SVG 1.1//EN" "http://www.w3.org/Graphics/SVG/1.1/DTD/svg11.dtd">
<svg version="1.1" id="Layer_1" xmlns="http://www.w3.org/2000/svg" xmlns:xlink="http://www.w3.org/1999/xlink" x="0px" y="0px"
	 width="55px" height="55px" viewBox="0 0 55 55" style="enable-background:new 0 0 55 55;" xml:space="preserve">
<style type="text/css">
	.st0{fill:#FFFFFF;}
</style>
<g>
	<g>
		<path class="st0" d="M15.3,27.8c0,1.6,0.3,3,0.8,4.4c0.6,1.4,1.3,2.7,2.3,3.8c0.6-1.1,1.4-2.2,2.3-3.1c0.9-1,1.8-1.8,2.7-2.3
			c0.9-0.6,1.7-1.1,2.5-1.5c0.8-0.4,1.4-0.7,1.9-0.9l0.7-0.2c0,0,0.1,0,0.2-0.1c0.1,0,0.2-0.1,0.2-0.1c-0.3-0.6-0.6-1.3-1-2.1
			c-3.9,1.2-8.1,1.7-12.6,1.7V27.8z M15.5,25.2c3.8,0,7.6-0.5,11.4-1.5c-1.5-2.7-3-5-4.6-7.1c-1.7,0.8-3.2,2-4.4,3.5
			C16.7,21.6,15.9,23.3,15.5,25.2z M19.7,37.3c2.3,1.9,4.9,2.8,7.9,2.8c1.7,0,3.3-0.3,4.8-1c-0.5-3-1.4-6.1-2.6-9.4
			c-0.2,0.1-0.5,0.2-0.8,0.3s-1,0.4-1.9,0.9s-1.8,1-2.6,1.5c-0.8,0.5-1.6,1.3-2.5,2.2c-0.9,0.9-1.5,1.8-1.9,2.8L19.7,37.3z
			 M24.7,15.8c1.6,2.1,3.2,4.5,4.6,7.2c0.9-0.3,1.7-0.7,2.4-1.1c0.8-0.4,1.4-0.8,1.8-1.2c0.4-0.3,0.9-0.7,1.2-1.1
			c0.4-0.4,0.6-0.6,0.7-0.8c0.1-0.1,0.2-0.2,0.2-0.3c-2.3-2.1-5-3.1-8.1-3.1C26.6,15.4,25.7,15.6,24.7,15.8z M30.2,24.8
			c0.3,0.7,0.6,1.3,0.8,1.8c0,0.1,0.1,0.2,0.1,0.3c0.1,0.1,0.1,0.2,0.1,0.3c0.5-0.1,0.9-0.1,1.4-0.1H34h1.3c0.4,0,0.8,0,1.2,0.1
			c0.4,0,0.7,0.1,1.1,0.1c0.3,0,0.6,0.1,0.9,0.1s0.5,0.1,0.7,0.1s0.3,0.1,0.5,0.1h0.2c0-2.9-1-5.5-2.8-7.7c-0.1,0.2-0.2,0.3-0.4,0.5
			c-0.1,0.2-0.4,0.4-0.8,0.8c-0.4,0.4-0.9,0.8-1.3,1.1c-0.5,0.4-1.1,0.8-1.9,1.2C31.9,24.1,31.1,24.5,30.2,24.8z M32.1,29.2
			c1.1,3,1.9,5.9,2.4,8.8c1.4-0.9,2.5-2.1,3.5-3.6c0.9-1.4,1.5-3,1.8-4.7C37.1,29,34.6,28.8,32.1,29.2z"/>
	</g>
</g>
</svg>
