<?xml version="1.0" encoding="utf-8"?>
<!-- Generator: Adobe Illustrator 18.1.0, SVG Export Plug-In . SVG Version: 6.00 Build 0)  -->
<!DOCTYPE svg PUBLIC "-//W3C//DTD SVG 1.1//EN" "http://www.w3.org/Graphics/SVG/1.1/DTD/svg11.dtd">
<svg version="1.1" id="Layer_1" xmlns="http://www.w3.org/2000/svg" xmlns:xlink="http://www.w3.org/1999/xlink" x="0px" y="0px"
	 width="57px" height="57px" viewBox="-931 512 57 57" enable-background="new -931 512 57 57" xml:space="preserve">
<path fill="#5D8995" d="M-879,527c-2.5-4.2-5.8-7.5-10-10s-8.8-3.7-13.8-3.7s-9.6,1.2-13.8,3.7c-4.2,2.5-7.5,5.8-10,10
	c-2.4,4.2-3.6,8.8-3.6,13.8s1.2,9.6,3.7,13.8c2.5,4.2,5.8,7.5,10,10s8.8,3.7,13.8,3.7s9.6-1.2,13.8-3.7c4.2-2.5,7.5-5.8,10-10
	c2.5-4.2,3.7-8.8,3.7-13.8C-875.3,535.8-876.6,531.2-879,527z"/>
<path fill="#F0F1F3" d="M-913.2,531.3c0-0.7,0.3-1.3,0.8-1.8s1.2-0.7,2-0.7c0.8,0,1.5,0.2,2,0.7s0.7,1.1,0.8,1.8
	c0,0.7-0.2,1.3-0.8,1.8c-0.5,0.5-1.2,0.7-2,0.7l0,0c-0.8,0-1.5-0.2-2-0.7S-913.2,532-913.2,531.3z M-912.9,550.6v-14.7h4.9v14.7
	H-912.9z M-905.3,550.6c0-4,0-7.2,0-9.6c0-2.5,0-3.9,0-4.4v-0.7h4.9v2.1l0,0c0.2-0.3,0.4-0.6,0.6-0.8s0.5-0.5,0.8-0.8
	c0.4-0.3,0.8-0.5,1.3-0.6c0.5-0.2,1.1-0.2,1.7-0.2c1.7,0,3.1,0.6,4.1,1.7c1,1.1,1.5,2.8,1.5,4.9v8.5h-4.9v-7.9c0-1-0.2-1.9-0.6-2.4
	c-0.4-0.6-1-0.9-1.9-0.9c-0.6,0-1.1,0.2-1.6,0.5c-0.4,0.3-0.7,0.8-0.9,1.3c-0.1,0.3-0.2,0.7-0.2,1.2v8.2h-4.8V550.6z"/>
</svg>
