<?xml version="1.0" encoding="utf-8"?>
<!-- Generator: Adobe Illustrator 19.2.0, SVG Export Plug-In . SVG Version: 6.00 Build 0)  -->
<!DOCTYPE svg PUBLIC "-//W3C//DTD SVG 1.1//EN" "http://www.w3.org/Graphics/SVG/1.1/DTD/svg11.dtd">
<svg version="1.1" id="Layer_1" xmlns="http://www.w3.org/2000/svg" xmlns:xlink="http://www.w3.org/1999/xlink" x="0px" y="0px"
	 width="55px" height="55px" viewBox="0 0 55 55" style="enable-background:new 0 0 55 55;" xml:space="preserve">
<style type="text/css">
	.st0{fill:none;}
	.st1{fill:#454545;}
	.st2{fill:#FFFFFF;}
</style>
<polygon class="st0" points="31,23 37,23 31,17 "/>
<path class="st1" d="M31.6,15C31.3,15,31.4,15.1,31.6,15L31.6,15z"/>
<path class="st0" d="M31.3,30.2c-1-0.2-2.3,0-3.4,0c-1.1-0.1-1.9-0.7-2.6-1.7c-0.3-1.7-0.8-3.1-0.9-3.5c-0.3-0.6-0.7-0.9-0.9-0.9
	c-0.7,0-1.2,0.3-1.7,0.9c0,0.3,0,0.9,0,1.7c0.9,0.7,1.6,1.7,2.6,2.6c-0.1,1-0.1,2,0,2.6c-1.8,1.4-2.7,2.5-3.4,2.6
	c0,0.8-0.1,1.3,0,1.7c0.3,0.6,0.8,0.9,1.7,0.9c0.2,0,0.6-0.3,0.9-0.9c0.7-0.8,1.2-2,1.7-3.5c0.6-0.4,1.5-0.9,2.6-0.9
	c1.3,0.6,2.7,0.9,3.4,0.9c1.1,0.2,1.7-0.4,1.7-0.8C33,30.9,32.5,30.1,31.3,30.2z"/>
<path class="st0" d="M31.6,15C31.3,15,31.4,15.1,31.6,15L31.6,15z"/>
<polygon class="st0" points="31,23 37,23 31,17 "/>
<path class="st0" d="M31.3,30.2c-1-0.2-2.3,0-3.4,0c-1.1-0.1-1.9-0.7-2.6-1.7c-0.3-1.7-0.8-3.1-0.9-3.5c-0.3-0.6-0.7-0.9-0.9-0.9
	c-0.7,0-1.2,0.3-1.7,0.9c0,0.3,0,0.9,0,1.7c0.9,0.7,1.6,1.7,2.6,2.6c-0.1,1-0.1,2,0,2.6c-1.8,1.4-2.7,2.5-3.4,2.6
	c0,0.8-0.1,1.3,0,1.7c0.3,0.6,0.8,0.9,1.7,0.9c0.2,0,0.6-0.3,0.9-0.9c0.7-0.8,1.2-2,1.7-3.5c0.6-0.4,1.5-0.9,2.6-0.9
	c1.3,0.6,2.7,0.9,3.4,0.9c1.1,0.2,1.7-0.4,1.7-0.8C33,30.9,32.5,30.1,31.3,30.2z"/>
<polygon class="st0" points="31,23 37,23 31,17 "/>
<path class="st0" d="M31.6,15C31.3,15,31.4,15.1,31.6,15L31.6,15z"/>
<polygon class="st0" points="31,23 37,23 31,17 "/>
<path class="st0" d="M31.6,15C31.3,15,31.4,15.1,31.6,15L31.6,15z"/>
<path class="st0" d="M31.3,30.2c-1-0.2-2.3,0-3.4,0c-1.1-0.1-1.9-0.7-2.6-1.7c-0.3-1.7-0.8-3.1-0.9-3.5c-0.3-0.6-0.7-0.9-0.9-0.9
	c-0.7,0-1.2,0.3-1.7,0.9c0,0.3,0,0.9,0,1.7c0.9,0.7,1.6,1.7,2.6,2.6c-0.1,1-0.1,2,0,2.6c-1.8,1.4-2.7,2.5-3.4,2.6
	c0,0.8-0.1,1.3,0,1.7c0.3,0.6,0.8,0.9,1.7,0.9c0.2,0,0.6-0.3,0.9-0.9c0.7-0.8,1.2-2,1.7-3.5c0.6-0.4,1.5-0.9,2.6-0.9
	c1.3,0.6,2.7,0.9,3.4,0.9c1.1,0.2,1.7-0.4,1.7-0.8C33,30.9,32.5,30.1,31.3,30.2z"/>
<path class="st0" d="M31.6,15C31.3,15,31.4,15.1,31.6,15L31.6,15z"/>
<path class="st0" d="M31.3,30.2c-1-0.2-2.3,0-3.4,0c-1.1-0.1-1.9-0.7-2.6-1.7c-0.3-1.7-0.8-3.1-0.9-3.5c-0.3-0.6-0.7-0.9-0.9-0.9
	c-0.7,0-1.2,0.3-1.7,0.9c0,0.3,0,0.9,0,1.7c0.9,0.7,1.6,1.7,2.6,2.6c-0.1,1-0.1,2,0,2.6c-1.8,1.4-2.7,2.5-3.4,2.6
	c0,0.8-0.1,1.3,0,1.7c0.3,0.6,0.8,0.9,1.7,0.9c0.2,0,0.6-0.3,0.9-0.9c0.7-0.8,1.2-2,1.7-3.5c0.6-0.4,1.5-0.9,2.6-0.9
	c1.3,0.6,2.7,0.9,3.4,0.9c1.1,0.2,1.7-0.4,1.7-0.8C33,30.9,32.5,30.1,31.3,30.2z"/>
<polygon class="st0" points="31,23 37,23 31,17 "/>
<path class="st2" d="M38,21.5L31.6,15c-0.2,0.1-0.3,0,0,0H17.9c-0.7,0-0.9,0.2-0.9,0.9V40c0,0.7,0.2,0.9,0.9,0.9h19.2
	c0.7,0,0.9-0.2,0.9-0.9V22.4C38,21.9,37.9,21.8,38,21.5z M31.3,32.7c-0.7,0-2.1-0.3-3.4-0.9c-1.1,0-2,0.5-2.6,0.9
	c-0.5,1.5-1,2.7-1.7,3.5c-0.3,0.6-0.7,0.9-0.9,0.9c-0.9,0-1.4-0.3-1.7-0.9c-0.1-0.4,0-0.9,0-1.7c0.7-0.1,1.6-1.2,3.4-2.6
	c-0.1-0.6-0.1-1.6,0-2.6c-1-0.9-1.7-1.9-2.6-2.6c0-0.8,0-1.4,0-1.7c0.5-0.6,1-0.9,1.7-0.9c0.2,0,0.6,0.3,0.9,0.9
	c0.1,0.4,0.6,1.8,0.9,3.5c0.7,1,1.5,1.6,2.6,1.7c1.1,0,2.4-0.2,3.4,0c1.2-0.1,1.7,0.7,1.7,1.7C33,32.3,32.4,32.9,31.3,32.7z M31,23
	v-6l6,6H31z"/>
</svg>
