<?xml version="1.0" encoding="utf-8"?>
<!-- Generator: Adobe Illustrator 19.2.0, SVG Export Plug-In . SVG Version: 6.00 Build 0)  -->
<!DOCTYPE svg PUBLIC "-//W3C//DTD SVG 1.1//EN" "http://www.w3.org/Graphics/SVG/1.1/DTD/svg11.dtd">
<svg version="1.1" id="Layer_1" xmlns="http://www.w3.org/2000/svg" xmlns:xlink="http://www.w3.org/1999/xlink" x="0px" y="0px"
	 width="55px" height="55px" viewBox="0 0 55 55" style="enable-background:new 0 0 55 55;" xml:space="preserve">
<style type="text/css">
	.st0{fill:#FFFFFF;}
</style>
<g>
	<g>
		<path class="st0" d="M14.7,38.7c0.4,0,0.9,0.1,1.4,0.1c2.7,0,5.1-0.8,7.2-2.5c-1.3,0-2.4-0.4-3.4-1.2c-1-0.7-1.7-1.7-2-2.9
			c0.4,0.1,0.8,0.1,1.1,0.1c0.5,0,1-0.1,1.5-0.2c-1.3-0.3-2.4-0.9-3.3-2c-0.9-1.1-1.3-2.3-1.3-3.7v-0.1c0.8,0.5,1.7,0.7,2.6,0.7
			c-0.8-0.5-1.4-1.2-1.9-2.1c-0.5-0.8-0.7-1.8-0.7-2.8c0-1.1,0.3-2,0.8-2.9c1.4,1.8,3.2,3.2,5.3,4.3s4.3,1.7,6.7,1.8
			c-0.1-0.5-0.1-0.9-0.1-1.3c0-1.6,0.6-3,1.7-4.1c1.1-1.1,2.5-1.7,4.1-1.7c1.7,0,3.1,0.6,4.2,1.8c1.3-0.3,2.5-0.7,3.7-1.4
			C41.9,20,41,21,39.8,21.8c1.1-0.1,2.2-0.4,3.3-0.9c-0.8,1.2-1.8,2.2-2.9,3v0.8c0,1.6-0.2,3.1-0.7,4.7c-0.5,1.5-1.1,3-2.1,4.5
			c-0.9,1.4-2,2.7-3.3,3.8c-1.3,1.1-2.8,2-4.6,2.6c-1.8,0.7-3.7,1-5.8,1C20.4,41.3,17.4,40.4,14.7,38.7z"/>
	</g>
</g>
</svg>
