<?xml version="1.0" encoding="utf-8"?>
<!-- Generator: Adobe Illustrator 18.1.0, SVG Export Plug-In . SVG Version: 6.00 Build 0)  -->
<!DOCTYPE svg PUBLIC "-//W3C//DTD SVG 1.1//EN" "http://www.w3.org/Graphics/SVG/1.1/DTD/svg11.dtd">
<svg version="1.1" id="Layer_1" xmlns="http://www.w3.org/2000/svg" xmlns:xlink="http://www.w3.org/1999/xlink" x="0px" y="0px"
	 width="57px" height="57px" viewBox="-931 512 57 57" enable-background="new -931 512 57 57" xml:space="preserve">
<path fill="#5D8995" d="M-878.7,527c-2.5-4.2-5.8-7.5-10-10s-8.8-3.7-13.8-3.7s-9.6,1.2-13.8,3.7s-7.5,5.8-10,10s-3.7,8.8-3.7,13.8
	s1.2,9.6,3.7,13.8c2.5,4.2,5.8,7.5,10,10s8.8,3.7,13.8,3.7s9.6-1.2,13.8-3.7s7.5-5.8,10-10c2.5-4.2,3.7-8.8,3.7-13.8
	S-876.2,531.2-878.7,527z"/>
<path fill="#F0F1F3" d="M-915.3,551.7c0.4,0,0.9,0.1,1.4,0.1c2.7,0,5.1-0.8,7.2-2.5c-1.3,0-2.4-0.4-3.4-1.2c-1-0.7-1.7-1.7-2-2.9
	c0.4,0.1,0.8,0.1,1.1,0.1c0.5,0,1-0.1,1.5-0.2c-1.3-0.3-2.4-0.9-3.3-2c-0.9-1.1-1.3-2.3-1.3-3.7v-0.1c0.8,0.5,1.7,0.7,2.6,0.7
	c-0.8-0.5-1.4-1.2-1.9-2.1c-0.5-0.8-0.7-1.8-0.7-2.8c0-1.1,0.3-2,0.8-2.9c1.4,1.8,3.2,3.2,5.3,4.3s4.3,1.7,6.7,1.8
	c-0.1-0.5-0.1-0.9-0.1-1.3c0-1.6,0.6-3,1.7-4.1c1.1-1.1,2.5-1.7,4.1-1.7c1.7,0,3.1,0.6,4.2,1.8c1.3-0.3,2.5-0.7,3.7-1.4
	c-0.4,1.4-1.3,2.4-2.5,3.2c1.1-0.1,2.2-0.4,3.3-0.9c-0.8,1.2-1.8,2.2-2.9,3c0,0.2,0,0.4,0,0.8c0,1.6-0.2,3.1-0.7,4.7
	c-0.5,1.5-1.1,3-2.1,4.5c-0.9,1.4-2,2.7-3.3,3.8c-1.3,1.1-2.8,2-4.6,2.6c-1.8,0.7-3.7,1-5.8,1C-909.6,554.3-912.6,553.4-915.3,551.7
	z"/>
</svg>
