<?xml version="1.0" encoding="UTF-8" standalone="no"?>
<svg width="55px" height="55px" viewBox="0 0 55 55" version="1.1" xmlns="http://www.w3.org/2000/svg" xmlns:xlink="http://www.w3.org/1999/xlink">
    <defs></defs>
    <g stroke="none" stroke-width="1" fill="none" fill-rule="evenodd">
        <g fill="#2C6576">
            <path d="M41.3,3.7 C37.1,1.2 32.5,0 27.5,0 C22.5,0 17.9,1.2 13.7,3.7 C9.5,6.2 6.2,9.5 3.7,13.7 C1.2,17.9 0,22.5 0,27.5 C0,32.5 1.2,37.1 3.7,41.3 C6.2,45.5 9.5,48.8 13.7,51.3 C17.9,53.8 22.5,55 27.5,55 C32.5,55 37.1,53.8 41.3,51.3 C45.5,48.8 48.8,45.5 51.3,41.3 C53.8,37.1 55,32.5 55,27.5 C55,22.5 53.8,17.9 51.3,13.7 C48.8,9.5 45.5,6.2 41.3,3.7 Z M38,21.5 L31.6086957,15 C31.448,15.0574167 31.3136,15 31.6086957,15 L17.9130435,15 C17.2352,15 17,15.2426667 17,15.9285714 L17,40.0714286 C17,40.7573333 17.2352,41 17.9130435,41 L37.0869565,41 C37.7648,41 38,40.7573333 38,40.0714286 L38,22.4285714 C38,21.8975833 37.94435,21.76 38,21.5 Z M31,23 L31,17 L37,23 L31,23 Z"></path>
            <path d="M31.2857143,32.6666667 C30.6134763,32.6284149 29.17363,32.3197626 27.8571429,31.8 C26.7334087,31.8399665 25.8718139,32.2613956 25.2857143,32.6666667 C24.7789186,34.1528803 24.282586,35.3538543 23.5714286,36.1333333 C23.2783559,36.7675215 22.8475585,37 22.7142857,37 C21.8462197,37 21.3373584,36.6824443 21,36.1333333 C20.9007785,35.7416483 20.9865524,35.2104102 21,34.4 C21.6862368,34.324024 22.6162579,33.2496766 24.4285714,31.8 C24.3220999,31.2206834 24.3519762,30.1700784 24.4285714,29.2 C23.4711064,28.2508941 22.7598571,27.3140552 21.8571429,26.6 C21.8520022,25.7816757 21.8336909,25.2257058 21.8571429,24.8666667 C22.3444797,24.2957918 22.8099722,24 23.5714286,24 C23.7689059,24 24.173682,24.3116201 24.4285714,24.8666667 C24.5061766,25.237577 24.9841979,26.6749867 25.2857143,28.3333333 C25.9469866,29.3410699 26.7902701,29.9652994 27.8571429,30.0666667 C28.9693145,30.066205 30.2539966,29.8881364 31.2857143,30.0666667 C32.5255612,29.9791492 33.01322,30.7300053 33,31.8 C32.9833437,32.2732669 32.3761796,32.8529792 31.2857143,32.6666667 L31.2857143,32.6666667 Z"></path>
        </g>
    </g>
</svg>