<?xml version="1.0" encoding="utf-8"?>
<!-- Generator: Adobe Illustrator 18.1.0, SVG Export Plug-In . SVG Version: 6.00 Build 0)  -->
<!DOCTYPE svg PUBLIC "-//W3C//DTD SVG 1.1//EN" "http://www.w3.org/Graphics/SVG/1.1/DTD/svg11.dtd">
<svg version="1.1" id="Layer_1" xmlns="http://www.w3.org/2000/svg" xmlns:xlink="http://www.w3.org/1999/xlink" x="0px" y="0px"
	 width="57px" height="57px" viewBox="-931 512 57 57" enable-background="new -931 512 57 57" xml:space="preserve">
<path fill="#5D8995" d="M-878.7,527c-2.5-4.2-5.8-7.5-10-10s-8.8-3.7-13.8-3.7s-9.6,1.2-13.8,3.7s-7.5,5.8-10,10s-3.7,8.8-3.7,13.8
	s1.2,9.6,3.7,13.8c2.5,4.2,5.8,7.5,10,10s8.8,3.7,13.8,3.7s9.6-1.2,13.8-3.7s7.5-5.8,10-10c2.5-4.2,3.7-8.8,3.7-13.8
	S-876.2,531.2-878.7,527z M-908,518C-908,518-908.1,518-908,518C-908.1,518-908,518-908,518z"/>
<path fill="#5D8995" d="M-914.9,548c-1.3-2.2-1.9-4.6-1.9-7.2c0-2.6,0.6-5,1.9-7.2c1.3-2.2,3-4,5.3-5.3c2.2-1.3,4.6-1.9,7.2-1.9
	c2.6,0,5,0.6,7.2,1.9s4,3,5.3,5.3c1.3,2.2,1.9,4.6,1.9,7.2c0,2.6-0.6,5-1.9,7.2c-1.3,2.2-3,4-5.3,5.3c-2.2,1.3-4.6,1.9-7.2,1.9
	c-2.6,0-5-0.6-7.2-1.9C-911.9,552-913.6,550.2-914.9,548z M-905.4,528.8L-905.4,528.8L-905.4,528.8z"/>
<path fill="#F0F1F3" d="M-914.7,540.8c0,1.6,0.3,3,0.8,4.4c0.6,1.4,1.3,2.7,2.3,3.8c0.6-1.1,1.4-2.2,2.3-3.1c0.9-1,1.8-1.8,2.7-2.3
	c0.9-0.6,1.7-1.1,2.5-1.5c0.8-0.4,1.4-0.7,1.9-0.9l0.7-0.2c0,0,0.1,0,0.2-0.1c0.1,0,0.2-0.1,0.2-0.1c-0.3-0.6-0.6-1.3-1-2.1
	c-3.9,1.2-8.1,1.7-12.6,1.7C-914.7,540.5-914.7,540.6-914.7,540.8z M-914.5,538.2c3.8,0,7.6-0.5,11.4-1.5c-1.5-2.7-3-5-4.6-7.1
	c-1.7,0.8-3.2,2-4.4,3.5C-913.3,534.6-914.1,536.3-914.5,538.2z M-910.3,550.3c2.3,1.9,4.9,2.8,7.9,2.8c1.7,0,3.3-0.3,4.8-1
	c-0.5-3-1.4-6.1-2.6-9.4l0,0l0,0c-0.2,0.1-0.5,0.2-0.8,0.3s-1,0.4-1.9,0.9c-0.9,0.5-1.8,1-2.6,1.5s-1.6,1.3-2.5,2.2
	c-0.9,0.9-1.5,1.8-1.9,2.8L-910.3,550.3z M-905.4,528.8L-905.4,528.8L-905.4,528.8z M-905.3,528.8c1.6,2.1,3.2,4.5,4.6,7.2
	c0.9-0.3,1.7-0.7,2.4-1.1c0.8-0.4,1.4-0.8,1.8-1.2c0.4-0.3,0.9-0.7,1.2-1.1c0.4-0.4,0.6-0.6,0.7-0.8c0.1-0.1,0.2-0.2,0.2-0.3
	c-2.3-2.1-5-3.1-8.1-3.1C-903.4,528.4-904.3,528.6-905.3,528.8z M-899.8,537.8c0.3,0.7,0.6,1.3,0.8,1.8c0,0.1,0.1,0.2,0.1,0.3
	c0.1,0.1,0.1,0.2,0.1,0.3c0.5-0.1,0.9-0.1,1.4-0.1s0.9,0,1.4,0c0.4,0,0.9,0,1.3,0c0.4,0,0.8,0,1.2,0.1c0.4,0,0.7,0.1,1.1,0.1
	c0.3,0,0.6,0.1,0.9,0.1s0.5,0.1,0.7,0.1s0.3,0.1,0.5,0.1h0.2c0-2.9-1-5.5-2.8-7.7l0,0c-0.1,0.2-0.2,0.3-0.4,0.5
	c-0.1,0.2-0.4,0.4-0.8,0.8c-0.4,0.4-0.9,0.8-1.3,1.1c-0.5,0.4-1.1,0.8-1.9,1.2C-898.1,537.1-898.9,537.5-899.8,537.8z M-897.9,542.2
	c1.1,3,1.9,5.9,2.4,8.8c1.4-0.9,2.5-2.1,3.5-3.6c0.9-1.4,1.5-3,1.8-4.7C-892.9,542-895.4,541.8-897.9,542.2z"/>
</svg>
