<?xml version="1.0" encoding="utf-8"?>
<!-- Generator: Adobe Illustrator 18.1.0, SVG Export Plug-In . SVG Version: 6.00 Build 0)  -->
<svg version="1.2" baseProfile="tiny" id="Layer_1" xmlns="http://www.w3.org/2000/svg" xmlns:xlink="http://www.w3.org/1999/xlink"
	 x="0px" y="0px" width="407px" height="249.6px" viewBox="0 0 407 249.6" xml:space="preserve">
<g>
	<rect x="213.4" y="208.4" fill="none" width="173.6" height="29.4"/>
	<path d="M273.7,220.5c-0.3,1-0.9,2.7-1.3,3.4c-0.6,0.2-2.5,0.6-4.1,0.6c-5.6,0-8.1-3.9-8.1-7.4c0-4.7,3.6-7.8,8.6-7.8
		c1.8,0,3.3,0.5,3.9,0.6c0.2,1.2,0.3,2.2,0.5,3.4l-0.7,0.2c-0.6-2.4-2-3.3-4.3-3.3c-3.6,0-5.6,3.1-5.6,6.5c0,4.1,2.4,7,5.7,7
		c2.2,0,3.4-1.2,4.5-3.4L273.7,220.5z"/>
	<path d="M285.2,219.1c0,3.6-2.6,5.3-4.9,5.3c-3.1,0-4.9-2.5-4.9-4.9c0-3.7,2.9-5.4,5-5.4C283.1,214.2,285.2,216.4,285.2,219.1z
		 M277.6,218.8c0,2.8,1.1,4.9,2.9,4.9c1.3,0,2.4-0.9,2.4-4c0-2.7-1-4.7-2.9-4.7C278.7,214.9,277.6,216.3,277.6,218.8z"/>
	<path d="M298.7,224.2v-0.6c1.2-0.1,1.5-0.2,1.5-1.8v-3.7c0-1.6-0.6-2.5-1.9-2.5c-0.8,0-1.5,0.4-2.4,1.1c0,0.3,0.1,0.5,0.1,0.9v4.4
		c0,1.4,0.2,1.5,1.4,1.6v0.6h-4.8v-0.6c1.3-0.1,1.5-0.2,1.5-1.7v-3.9c0-1.6-0.6-2.5-1.9-2.5c-0.8,0-1.6,0.6-2.3,1.1v5.3
		c0,1.4,0.2,1.5,1.2,1.7v0.6h-4.8v-0.6c1.4-0.1,1.6-0.2,1.6-1.7v-4.6c0-1.4-0.1-1.5-1.3-1.7V215c1-0.2,2.2-0.5,3.3-0.9v1.8
		c0.5-0.3,0.9-0.7,1.6-1.1c0.6-0.4,1.1-0.6,1.8-0.6c1.1,0,2,0.7,2.5,1.8c0.6-0.5,1.3-0.9,1.8-1.2c0.5-0.3,1.1-0.6,1.7-0.6
		c1.8,0,2.9,1.2,2.9,3.4v4.3c0,1.5,0.1,1.5,1.4,1.7v0.6H298.7z"/>
	<path d="M309.6,214.5c0.4-0.2,0.8-0.4,1.1-0.4c2.5,0,4,2.1,4,4.2c0,3.3-2.7,5.5-5.6,6.1c-0.6,0-1.2-0.2-1.5-0.4v2.9
		c0,1.6,0.2,1.7,1.9,1.9v0.6h-5.4v-0.6c1.4-0.1,1.6-0.3,1.6-1.7v-10.1c0-1.4-0.1-1.5-1.4-1.6v-0.6c1-0.2,2.3-0.6,3.4-1v1.7
		L309.6,214.5z M307.6,222.5c0.5,0.5,1.3,0.9,2,0.9c1.8,0,2.9-1.6,2.9-4.1c0-2.5-1.4-3.7-2.9-3.7c-0.7,0-1.5,0.4-2.1,0.9V222.5z"/>
	<path d="M315.6,224.2v-0.6c1.4-0.2,1.6-0.3,1.6-1.7v-10.5c0-1.5-0.1-1.5-1.5-1.7v-0.5c1.2-0.1,2.6-0.5,3.5-0.8v13.5
		c0,1.5,0.2,1.6,1.6,1.7v0.6H315.6z"/>
	<path d="M330,222.3c-1.4,1.8-3,2.2-3.7,2.2c-2.8,0-4.4-2.2-4.4-4.7c0-1.6,0.6-2.9,1.5-3.9c0.9-1,2.1-1.6,3.3-1.6
		c1.9,0,3.4,1.7,3.4,3.4c0,0.4-0.1,0.6-0.5,0.7c-0.4,0-3.1,0.3-5.7,0.4c0,2.9,1.7,4.2,3.3,4.2c0.9,0,1.7-0.4,2.5-1.1L330,222.3z
		 M323.9,217.8c1.2,0,2.3,0,3.6-0.1c0.4,0,0.5-0.1,0.5-0.4c0-1.2-0.7-2.3-1.9-2.3C325.2,215,324.2,216,323.9,217.8z"/>
	<path d="M336.4,224.2v-0.6c0.9-0.1,1.1-0.3,0.7-0.9l-1.6-2.5c-0.5,0.7-1,1.5-1.4,2.3c-0.4,0.7-0.4,1,0.8,1.1v0.6h-4.2v-0.6
		c1.3-0.2,1.6-0.4,2.5-1.5c0.6-0.7,1.2-1.6,1.9-2.6l-1.9-3.1c-0.7-1.1-0.9-1.2-2.2-1.4v-0.6h4.6v0.6c-0.9,0.1-1,0.3-0.6,0.9l1.3,2
		c0.4-0.6,0.9-1.3,1.2-2s0.2-0.8-0.7-0.9v-0.6h4.1v0.6c-1.3,0.1-1.6,0.3-2.4,1.2c-0.5,0.6-1,1.3-1.8,2.4l2.2,3.3
		c0.8,1.2,1.1,1.5,2.4,1.6v0.6H336.4z"/>
</g>
<g>
	<rect x="11.6" y="208.4" fill="none" width="173.6" height="29.4"/>
	<path d="M58.1,220.7c-0.1,0.8-0.6,2.9-0.8,3.5H46.5v-0.6c2-0.2,2.2-0.3,2.2-2.2v-8.8c0-2-0.2-2.1-1.9-2.2v-0.6h10
		c0,0.5,0.1,2.1,0.2,3.2l-0.7,0.1c-0.2-0.9-0.4-1.4-0.7-1.9c-0.3-0.5-0.9-0.6-2.5-0.6h-1.6c-0.7,0-0.8,0.1-0.8,0.7v5h2
		c2,0,2.1-0.2,2.4-1.7h0.7v4.3h-0.7c-0.3-1.6-0.5-1.7-2.4-1.7h-2v4.1c0,1,0.1,1.6,0.5,1.8c0.4,0.3,1.2,0.3,2.3,0.3
		c1.6,0,2.3-0.2,2.7-0.7c0.4-0.5,0.8-1.2,1.1-2.1L58.1,220.7z"/>
	<path d="M66.7,224.5c-0.4,0-0.8-0.2-1.1-0.4c-0.3-0.3-0.4-0.6-0.5-1c-0.9,0.6-2,1.4-2.6,1.4c-1.6,0-2.7-1.4-2.7-2.7
		c0-1.1,0.6-1.8,1.8-2.2c1.3-0.5,3-1.1,3.5-1.5v-0.4c0-1.6-0.7-2.5-1.8-2.5c-0.4,0-0.7,0.2-1,0.4c-0.3,0.3-0.5,0.8-0.6,1.5
		c-0.1,0.4-0.4,0.6-0.7,0.6c-0.4,0-1-0.4-1-1c0-0.4,0.3-0.6,0.7-0.9c0.6-0.5,2.1-1.3,3.4-1.6c0.7,0,1.4,0.2,1.9,0.6
		c0.8,0.7,1,1.6,1,2.8v4.1c0,1,0.4,1.3,0.8,1.3c0.3,0,0.6-0.1,0.8-0.2l0.2,0.6L66.7,224.5z M65,218.9c-0.5,0.2-1.4,0.7-1.9,0.9
		c-0.8,0.4-1.3,0.8-1.3,1.6c0,1.2,0.9,1.7,1.5,1.7c0.5,0,1.2-0.3,1.6-0.7V218.9z"/>
	<path d="M75.3,217.1c-0.4-1.3-1.2-2.2-2.3-2.2c-0.8,0-1.4,0.6-1.4,1.5c0,0.9,0.8,1.4,1.8,1.9c1.7,0.7,2.9,1.5,2.9,3.1
		c0,2.1-1.9,3.1-3.7,3.1c-1.2,0-2.2-0.4-2.6-0.8c-0.2-0.3-0.4-1.9-0.4-2.7l0.6-0.1c0.4,1.4,1.4,2.8,2.8,2.8c0.8,0,1.5-0.6,1.5-1.5
		c0-0.9-0.6-1.4-1.7-2c-1.3-0.6-2.8-1.4-2.8-3.1c0-1.6,1.4-2.9,3.5-2.9c1,0,1.6,0.2,2,0.4c0.2,0.5,0.4,1.9,0.5,2.4L75.3,217.1z"/>
	<path d="M87.7,215c-1.2,0.2-1.4,0.4-2,1.6c-0.6,1.2-1.2,3-2.8,6.6c-1.5,3.6-2,4.9-2.3,6.1c-0.1,0.4-0.4,0.6-0.7,0.6
		c-0.6,0-1.3-0.6-1.3-1.1c0-0.4,0.2-0.6,0.6-0.8c0.7-0.4,1.2-1,1.7-1.9c0.4-0.7,0.5-1.1,0.6-1.4c0.1-0.3,0.1-0.6,0-1
		c-1-2.7-2-5.4-2.6-6.9c-0.5-1.2-0.7-1.4-1.9-1.6v-0.6h4.7v0.6c-1,0.2-1.2,0.4-0.9,1.2l2,5.5c0.6-1.5,1.5-4,2-5.4
		c0.3-0.8,0.1-1.1-1.1-1.3v-0.6h4V215z"/>
	<path d="M93.6,219.8h-5.2l0.3-1.3h5.2L93.6,219.8z"/>
	<path d="M100.3,224.2c-0.4,0.2-0.7,0.3-0.9,0.3c-1.5,0-2.3-0.9-2.3-2.7v-6.4h-1.5l-0.1-0.2l0.6-0.7h1v-1.6l1.6-1.5l0.3,0.1v3.1h2.5
		c0.2,0.2,0.2,0.7-0.1,0.9H99v5.7c0,1.8,0.8,2.1,1.3,2.1c0.5,0,1-0.2,1.3-0.3l0.2,0.6L100.3,224.2z"/>
	<path d="M112.5,219.1c0,3.6-2.6,5.3-4.9,5.3c-3.1,0-4.9-2.5-4.9-4.9c0-3.7,2.9-5.4,5-5.4C110.5,214.2,112.5,216.4,112.5,219.1z
		 M105,218.8c0,2.8,1.1,4.9,2.9,4.9c1.3,0,2.4-0.9,2.4-4c0-2.7-1-4.7-2.9-4.7C106.1,214.9,105,216.3,105,218.8z"/>
	<path d="M119.7,219.8h-5.2l0.3-1.3h5.2L119.7,219.8z"/>
	<path d="M132.8,223.7c-1.1,0.2-2.3,0.5-3.4,0.8l-0.2-0.1v-1.5c-0.5,0.4-0.9,0.7-1.5,1.1c-0.6,0.4-1.2,0.6-1.8,0.6
		c-1.6,0-2.8-1-2.8-3.3v-4.4c0-1.2-0.1-1.3-1.4-1.5v-0.6c1.1-0.1,2.2-0.2,3.4-0.4c-0.1,0.7-0.1,1.8-0.1,3.3v3c0,1.9,0.9,2.4,1.9,2.4
		c0.8,0,1.5-0.3,2.3-1v-5.2c0-1.2-0.1-1.3-1.7-1.5v-0.6c1.2-0.1,2.4-0.2,3.6-0.4v7.4c0,1.1,0.2,1.3,1,1.4l0.6,0V223.7z"/>
	<path d="M139.7,217.1c-0.4-1.3-1.2-2.2-2.3-2.2c-0.8,0-1.4,0.6-1.4,1.5c0,0.9,0.8,1.4,1.8,1.9c1.7,0.7,2.9,1.5,2.9,3.1
		c0,2.1-1.9,3.1-3.7,3.1c-1.2,0-2.2-0.4-2.6-0.8c-0.2-0.3-0.4-1.9-0.4-2.7l0.6-0.1c0.4,1.4,1.4,2.8,2.8,2.8c0.8,0,1.5-0.6,1.5-1.5
		c0-0.9-0.6-1.4-1.7-2c-1.3-0.6-2.8-1.4-2.8-3.1c0-1.6,1.4-2.9,3.5-2.9c1,0,1.6,0.2,2,0.4c0.2,0.5,0.4,1.9,0.5,2.4L139.7,217.1z"/>
	<path d="M150.4,222.3c-1.4,1.8-3,2.2-3.7,2.2c-2.8,0-4.4-2.2-4.4-4.7c0-1.6,0.6-2.9,1.5-3.9c0.9-1,2.1-1.6,3.3-1.6
		c1.9,0,3.4,1.7,3.4,3.4c0,0.4-0.1,0.6-0.5,0.7c-0.4,0-3.1,0.3-5.7,0.4c0,2.9,1.7,4.2,3.3,4.2c0.9,0,1.7-0.4,2.5-1.1L150.4,222.3z
		 M144.3,217.8c1.2,0,2.3,0,3.6-0.1c0.4,0,0.5-0.1,0.5-0.4c0-1.2-0.7-2.3-1.9-2.3C145.6,215,144.6,216,144.3,217.8z"/>
</g>
<g>
</g>
<line fill="none" stroke="#2C6576" stroke-width="9.0621" stroke-linecap="round" stroke-linejoin="round" stroke-miterlimit="10" x1="86.7" y1="99.5" x2="168.3" y2="177.1"/>
<polygon fill="none" points="46.9,129 136,129 136,123 145.8,123 98.4,27.1 "/>
<path fill="#2C6576" d="M135.9,129.9H47c-0.1,0-0.1-0.1-0.1-0.1L98.3,27.3c0-0.1,0.1-0.1,0.2,0l47.3,94.8c0,0,0.1,0.1,0.1,0.1h8.4
	c0.1,0,0.1-0.1,0.1-0.1L101.8,17.1c-0.7-1.4-2.2-2.2-3.8-2.1c-1.4,0.1-2.6,1.1-3.2,2.3l-57.5,115c-0.5,1-0.6,2.2-0.2,3.3
	c0.6,1.5,2,2.1,3.5,2.1h115.4c0,0,0,0,0,0c2.1,0,3.8-1.5,3.8-3.6c0-0.8-0.2-1.6-0.6-2.2l-0.9-1.9c0,0-0.1-0.1-0.1-0.1h-8.5H135.9z"
	/>
<path fill="#2C6576" d="M357.8,87.2l-46.6-46.6c-0.7-0.7-1.8-0.9-2.7-0.5c-0.9,0.4-1.5,1.3-1.5,2.3v58.8c0,3.8-3.6,7.4-7.4,7.4
	c-3.6,0-7.4-3.7-7.4-7.4l0-9.8H285c-1.4,0-2.5-1.1-2.5-2.5c0-1.4,1.1-2.5,2.5-2.5h7.4l0-7.4H285c-1.4,0-2.5-1.1-2.5-2.5
	c0-1.4,1.1-2.5,2.5-2.5h7.3l0-7.4H285c-1.4,0-2.5-1.1-2.5-2.5c0-1.4,1.1-2.5,2.5-2.5h7.3l0-9.3c0.5-7.4-2.6-14.8-8.8-21.4
	C273.4,20.5,256.2,13,241.7,13h-13.1c-1.4,0-2.5,1.1-2.5,2.5s1.1,2.5,2.5,2.5h13.1c9.3,0,16.1,6.2,16.3,14.7v87.9
	c-0.1,9,3.8,17.9,10.9,25.1c9,9,21.9,14.4,34.6,14.4c23.2,0,42.7-18.1,42.7-39.5V98.9c0-3.2,5.6-7.5,9.8-7.5c1,0,1.9-0.6,2.3-1.5
	C358.7,89,358.5,87.9,357.8,87.2z"/>
<g>
</g>
<g>
</g>
<g>
</g>
<g>
</g>
<g>
</g>
<g>
</g>
<g>
</g>
<g>
</g>
<g>
</g>
<g>
</g>
<g>
</g>
<g>
</g>
<g>
</g>
<g>
</g>
<g>
</g>
</svg>
