<?xml version="1.0" encoding="UTF-8" standalone="no"?>
<svg width="14px" height="14px" viewBox="0 0 14 14" version="1.1" xmlns="http://www.w3.org/2000/svg" xmlns:xlink="http://www.w3.org/1999/xlink">
    <defs></defs>
    <g stroke="none" stroke-width="1" fill="none" fill-rule="evenodd">
        <g transform="translate(-184.000000, -27.000000)" fill="#2C6576">
            <path d="M191.084698,33.9183197 C189.318551,32.1504152 186.965196,31.1472274 184.467051,31.0938985 L184,31.0833333 L184,33.3161052 L184.446439,33.3271735 C185.342835,33.3488069 186.220629,33.5309303 187.050663,33.8670032 C187.971694,34.2423182 188.797706,34.7891913 189.502556,35.4915233 L189.508086,35.4960513 C190.210422,36.201905 190.756907,37.0280004 191.132962,37.9532072 C191.468796,38.7818181 191.65079,39.6587269 191.673916,40.5587785 L191.684977,41 L193.916667,41 L193.906612,40.5376482 C193.854829,38.0372254 192.851348,35.6867274 191.084698,33.9183197 Z M185.75,37.5 C184.783533,37.5 184,38.284 184,39.2504667 C184,40.2169333 184.783533,41 185.75,41 C186.716467,41 187.5,40.2169333 187.5,39.2504667 C187.5,38.284 186.716467,37.5 185.75,37.5 Z M197.9825,40.51 C197.9285,36.934 196.5195,33.566 193.981,31.0275 C191.4425,28.4885 188.0755,27.0605 184.5005,27.008 L184.0115,27 L184.0065,27.489 L184,28.8965 L184,29.371 L184.479,29.3795 C185.8845,29.406 187.2545,29.685 188.5455,30.21 C189.9515,30.781 191.2165,31.621 192.301,32.7065 C193.3865,33.792 194.2265,35.055 194.7955,36.459 C195.322,37.7515 195.602,39.12 195.6255,40.526 L195.634,41 L198,41 L197.9825,40.51 Z"></path>
        </g>
    </g>
</svg>