<?xml version="1.0" encoding="UTF-8" standalone="no"?>
<svg width="55px" height="55px" viewBox="0 0 55 55" version="1.1" xmlns="http://www.w3.org/2000/svg" xmlns:xlink="http://www.w3.org/1999/xlink">
    <defs></defs>
    <g stroke="none" stroke-width="1" fill="none" fill-rule="evenodd">
        <g fill="#2C6576">
            <path d="M51.3,13.7 C48.8,9.5 45.5,6.2 41.3,3.7 C37.1,1.2 32.5,0 27.5,0 C22.5,0 17.9,1.2 13.7,3.7 C9.5,6.2 6.2,9.5 3.7,13.7 C1.2,17.9 0,22.5 0,27.5 C0,32.5 1.2,37.1 3.7,41.3 C6.2,45.5 9.5,48.8 13.7,51.3 C17.9,53.8 22.5,55 27.5,55 C32.5,55 37.1,53.8 41.3,51.3 C45.5,48.8 48.8,45.5 51.3,41.3 C53.8,37.1 55,32.5 55,27.5 C55,22.5 53.8,17.9 51.3,13.7 Z M15.3,27.8 C15.3,29.4 15.6,30.8 16.1,32.2 C16.7,33.6 17.4,34.9 18.4,36 C19,34.9 19.8,33.8 20.7,32.9 C21.6,31.9 22.5,31.1 23.4,30.6 C24.3,30 25.1,29.5 25.9,29.1 C26.7,28.7 27.3,28.4 27.8,28.2 L28.5,28 C28.5,28 28.6,28 28.7,27.9 C28.8,27.9 28.9,27.8 28.9,27.8 C28.6,27.2 28.3,26.5 27.9,25.7 C24,26.9 19.8,27.4 15.3,27.4 L15.3,27.8 Z M15.5,25.2 C19.3,25.2 23.1,24.7 26.9,23.7 C25.4,21 23.9,18.7 22.3,16.6 C20.6,17.4 19.1,18.6 17.9,20.1 C16.7,21.6 15.9,23.3 15.5,25.2 Z M19.7,37.3 C22,39.2 24.6,40.1 27.6,40.1 C29.3,40.1 30.9,39.8 32.4,39.1 C31.9,36.1 31,33 29.8,29.7 C29.6,29.8 29.3,29.9 29,30 C28.7,30.1 28,30.4 27.1,30.9 C26.2,31.4 25.3,31.9 24.5,32.4 C23.7,32.9 22.9,33.7 22,34.6 C21.1,35.5 20.5,36.4 20.1,37.4 L19.7,37.3 Z M24.7,15.8 C26.3,17.9 27.9,20.3 29.3,23 C30.2,22.7 31,22.3 31.7,21.9 C32.5,21.5 33.1,21.1 33.5,20.7 C33.9,20.4 34.4,20 34.7,19.6 C35.1,19.2 35.3,19 35.4,18.8 C35.5,18.7 35.6,18.6 35.6,18.5 C33.3,16.4 30.6,15.4 27.5,15.4 C26.6,15.4 25.7,15.6 24.7,15.8 Z M30.2,24.8 C30.5,25.5 30.8,26.1 31,26.6 C31,26.7 31.1,26.8 31.1,26.9 C31.2,27 31.2,27.1 31.2,27.2 C31.7,27.1 32.1,27.1 32.6,27.1 L34,27.1 L35.3,27.1 C35.7,27.1 36.1,27.1 36.5,27.2 C36.9,27.2 37.2,27.3 37.6,27.3 C37.9,27.3 38.2,27.4 38.5,27.4 C38.8,27.4 39,27.5 39.2,27.5 C39.4,27.5 39.5,27.6 39.7,27.6 L39.9,27.6 C39.9,24.7 38.9,22.1 37.1,19.9 C37,20.1 36.9,20.2 36.7,20.4 C36.6,20.6 36.3,20.8 35.9,21.2 C35.5,21.6 35,22 34.6,22.3 C34.1,22.7 33.5,23.1 32.7,23.5 C31.9,24.1 31.1,24.5 30.2,24.8 Z M32.1,29.2 C33.2,32.2 34,35.1 34.5,38 C35.9,37.1 37,35.9 38,34.4 C38.9,33 39.5,31.4 39.8,29.7 C37.1,29 34.6,28.8 32.1,29.2 Z"></path>
        </g>
    </g>
</svg>