<?xml version="1.0" encoding="UTF-8" standalone="no"?>
<svg width="55px" height="55px" viewBox="0 0 55 55" version="1.1" xmlns="http://www.w3.org/2000/svg" xmlns:xlink="http://www.w3.org/1999/xlink">
    <defs></defs>
    <g stroke="none" stroke-width="1" fill="none" fill-rule="evenodd">
        <g fill="#2C6576">
            <path d="M41.3,3.7 C37.1,1.2 32.5,0 27.5,0 C22.5,0 17.9,1.2 13.7,3.7 C9.5,6.2 6.2,9.5 3.7,13.7 C1.2,17.9 0,22.5 0,27.5 C0,32.5 1.2,37.1 3.7,41.3 C6.2,45.5 9.5,48.8 13.7,51.3 C17.9,53.8 22.5,55 27.5,55 C32.5,55 37.1,53.8 41.3,51.3 C45.5,48.8 48.8,45.5 51.3,41.3 C53.8,37.1 55,32.5 55,27.5 C55,22.5 53.8,17.9 51.3,13.7 C48.8,9.5 45.5,6.2 41.3,3.7 Z M14.7,38.7 C15.1,38.7 15.6,38.8 16.1,38.8 C18.8,38.8 21.2,38 23.3,36.3 C22,36.3 20.9,35.9 19.9,35.1 C18.9,34.4 18.2,33.4 17.9,32.2 C18.3,32.3 18.7,32.3 19,32.3 C19.5,32.3 20,32.2 20.5,32.1 C19.2,31.8 18.1,31.2 17.2,30.1 C16.3,29 15.9,27.8 15.9,26.4 L15.9,26.3 C16.7,26.8 17.6,27 18.5,27 C17.7,26.5 17.1,25.8 16.6,24.9 C16.1,24.1 15.9,23.1 15.9,22.1 C15.9,21 16.2,20.1 16.7,19.2 C18.1,21 19.9,22.4 22,23.5 C24.1,24.6 26.3,25.2 28.7,25.3 C28.6,24.8 28.6,24.4 28.6,24 C28.6,22.4 29.2,21 30.3,19.9 C31.4,18.8 32.8,18.2 34.4,18.2 C36.1,18.2 37.5,18.8 38.6,20 C39.9,19.7 41.1,19.3 42.3,18.6 C41.9,20 41,21 39.8,21.8 C40.9,21.7 42,21.4 43.1,20.9 C42.3,22.1 41.3,23.1 40.2,23.9 L40.2,24.7 C40.2,26.3 40,27.8 39.5,29.4 C39,30.9 38.4,32.4 37.4,33.9 C36.5,35.3 35.4,36.6 34.1,37.7 C32.8,38.8 31.3,39.7 29.5,40.3 C27.7,41 25.8,41.3 23.7,41.3 C20.4,41.3 17.4,40.4 14.7,38.7 Z"></path>
        </g>
    </g>
</svg>