<?xml version="1.0" encoding="UTF-8" standalone="no"?>
<svg width="55px" height="55px" viewBox="0 0 55 55" version="1.1" xmlns="http://www.w3.org/2000/svg" xmlns:xlink="http://www.w3.org/1999/xlink">
    <defs></defs>
    <g stroke="none" stroke-width="1" fill="none" fill-rule="evenodd">
        <g fill="#2C6576">
            <path d="M41.2,3.7 C37,1.2 32.4,0 27.4,0 C22.4,0 17.8,1.2 13.6,3.7 C9.4,6.2 6.1,9.5 3.6,13.7 C1.2,17.9 0,22.5 0,27.5 C0,32.5 1.2,37.1 3.7,41.3 C6.2,45.5 9.5,48.8 13.7,51.3 C17.9,53.8 22.5,55 27.5,55 C32.5,55 37.1,53.8 41.3,51.3 C45.5,48.8 48.8,45.5 51.3,41.3 C53.8,37.1 55,32.5 55,27.5 C54.9,22.5 53.6,17.9 51.2,13.7 C48.7,9.5 45.4,6.2 41.2,3.7 Z M29.1451965,26.8599767 C26.1175158,23.8292831 22.0831939,22.1095327 17.8006591,22.0181117 L17,22 L17,25.8276089 L17.7653232,25.8465831 C19.3020025,25.883669 20.8067934,26.1958805 22.2297085,26.7720055 C23.8086185,27.4154026 25.2246388,28.3528994 26.4329531,29.5568972 L26.4424335,29.5646593 C27.6464385,30.7746943 28.58327,32.1908579 29.2279341,33.7769266 C29.8036502,35.1974025 30.1156401,36.7006748 30.1552852,38.2436203 L30.1742459,39 L34,39 L33.982763,38.2073969 C33.8939924,33.9209578 32.1737389,29.8915326 29.1451965,26.8599767 Z M20,33 C18.3432,33 17,34.344 17,36.0008 C17,37.6576 18.3432,39 20,39 C21.6568,39 23,37.6576 23,36.0008 C23,34.344 21.6568,33 20,33 Z M40.97,38.16 C40.8774286,32.0297143 38.462,26.256 34.1102857,21.9042857 C29.7585714,17.5517143 23.9865714,15.1037143 17.858,15.0137143 L17.0197143,15 L17.0111429,15.8382857 L17,18.2511429 L17,19.0645714 L17.8211429,19.0791429 C20.2305714,19.1245714 22.5791429,19.6028571 24.7922857,20.5028571 C27.2025714,21.4817143 29.3711429,22.9217143 31.2302857,24.7825714 C33.0911429,26.6434286 34.5311429,28.8085714 35.5065714,31.2154286 C36.4091429,33.4311429 36.8891429,35.7771429 36.9294286,38.1874286 L36.944,39 L41,39 L40.97,38.16 Z"></path>
        </g>
    </g>
</svg>